<svg xmlns="http://www.w3.org/2000/svg" viewBox="0 0 261.452 277.764"><defs><style>.cls-1,.cls-6{fill:#439fe0;}.cls-2{fill:#fff;}.cls-3,.cls-4{fill:none;}.cls-3,.cls-4,.cls-5,.cls-6{stroke:#fff;}.cls-3,.cls-4,.cls-5{stroke-miterlimit:10;}.cls-3{stroke-width:2px;}.cls-5{fill:#35baa4;stroke-width:8px;}.cls-6{stroke-linejoin:round;stroke-width:6px;}</style></defs><title>Asset 7</title><g id="Layer_2" data-name="Layer 2"><g id="Layer_1-2" data-name="Layer 1"><path class="cls-1" d="M123.152,275.764a4.971,4.971,0,0,1-4.965-4.966V256.354a.964.964,0,0,0-.987-.972.916.916,0,0,0-.662.289l-1.9,1.9a4.967,4.967,0,0,1-7.023,0l-4.509-4.51a4.971,4.971,0,0,1,0-7.021l14.8-14.8a.963.963,0,0,0,.283-.684V160.539a.973.973,0,0,0-.971-.97.947.947,0,0,0-.478.134l-4.455,2.572a1.992,1.992,0,0,1-1,.268,2.013,2.013,0,0,1-.828-.179L59.079,192.028a.96.96,0,0,0-.45.586l-5.416,20.212a4.962,4.962,0,0,1-6.081,3.511l-6.16-1.65a4.965,4.965,0,0,1-3.511-6.081l.7-2.595a.906.906,0,0,0-.152-.823,1.016,1.016,0,0,0-.782-.4.944.944,0,0,0-.482.139l-12.508,7.222a4.963,4.963,0,0,1-6.783-1.817L8.141,194.207a4.971,4.971,0,0,1,1.817-6.783l11.481-6.629a.966.966,0,0,0-.233-1.769l-1.271-.341a4.97,4.97,0,0,1-3.511-6.081l1.65-6.16a4.962,4.962,0,0,1,6.081-3.511l18.889,5.062a.973.973,0,0,0,.732-.1l58.562-33.812a.964.964,0,0,0,0-1.671l-9.808-5.663a2,2,0,0,1-.739-.745L39.328,95.718a.967.967,0,0,0-.483-.13.985.985,0,0,0-.25.032l-20.21,5.416A4.963,4.963,0,0,1,12.3,97.525l-1.65-6.16a4.965,4.965,0,0,1,3.511-6.081l2.594-.7a.965.965,0,0,0,.232-1.769L4.481,75.6a4.966,4.966,0,0,1-1.817-6.783l9.308-16.122a4.962,4.962,0,0,1,6.784-1.817L30.236,57.5a.941.941,0,0,0,.482.139,1.014,1.014,0,0,0,.782-.4.9.9,0,0,0,.152-.822l-.341-1.271a4.97,4.97,0,0,1,3.511-6.081l6.16-1.65a4.962,4.962,0,0,1,6.081,3.511l5.061,18.889a.964.964,0,0,0,.451.587l64.164,37.044a.949.949,0,0,0,.478.134.972.972,0,0,0,.97-.97v-2.882a2,2,0,0,1,.516-1.341V46.016a.956.956,0,0,0-.282-.682L104.592,31.506a4.97,4.97,0,0,1,0-7.021l4.508-4.51a4.966,4.966,0,0,1,7.022,0l.931.931a.91.91,0,0,0,.661.288.964.964,0,0,0,.987-.971V6.966A4.971,4.971,0,0,1,123.668,2h18.616a4.971,4.971,0,0,1,4.966,4.966V21.409a.911.911,0,0,0,.287.694,1.056,1.056,0,0,0,.7.277.916.916,0,0,0,.662-.289l1.9-1.9a4.964,4.964,0,0,1,7.021,0l4.509,4.509a4.969,4.969,0,0,1,0,7.021l-14.8,14.8a.958.958,0,0,0-.283.683v59.283a.923.923,0,0,0,.288.69,1,1,0,0,0,.682.279.947.947,0,0,0,.478-.134l5.948-3.435a2,2,0,0,1,1.519-.2,1.977,1.977,0,0,1,.307.11l52.406-30.257a.958.958,0,0,0,.449-.585l5.062-18.89a4.962,4.962,0,0,1,6.081-3.511l6.16,1.65a4.965,4.965,0,0,1,3.511,6.081l-.341,1.271a.907.907,0,0,0,.151.823,1.018,1.018,0,0,0,.782.4.942.942,0,0,0,.482-.139l11.48-6.629a4.964,4.964,0,0,1,6.783,1.816l9.309,16.124a4.966,4.966,0,0,1-1.817,6.783l-12.509,7.222a.965.965,0,0,0,.232,1.769l2.595.7a4.97,4.97,0,0,1,3.511,6.081l-1.65,6.16a4.962,4.962,0,0,1-6.081,3.511l-20.212-5.416a.971.971,0,0,0-.731.1l-58.683,33.88a.966.966,0,0,0,0,1.673,1.98,1.98,0,0,1,.74.746l53.491,30.882a.97.97,0,0,0,.484.13.946.946,0,0,0,.25-.033l18.888-5.061a4.962,4.962,0,0,1,6.081,3.511l1.65,6.16a4.963,4.963,0,0,1-3.511,6.081l-1.271.341a.965.965,0,0,0-.233,1.769l11.481,6.628a4.965,4.965,0,0,1,1.816,6.784L244,208.471a4.986,4.986,0,0,1-4.3,2.483h0a4.961,4.961,0,0,1-2.48-.667l-12.508-7.221a.942.942,0,0,0-.482-.139,1.012,1.012,0,0,0-.781.4.9.9,0,0,0-.152.822l.7,2.595a4.97,4.97,0,0,1-3.511,6.081l-6.16,1.65a4.962,4.962,0,0,1-6.081-3.511l-5.415-20.212a.969.969,0,0,0-.451-.587L148.7,159.181a.949.949,0,0,0-.479-.134.972.972,0,0,0-.97.97v9.232a1.994,1.994,0,0,1-.516,1.341v61.157a.959.959,0,0,0,.283.684l13.827,13.827a4.975,4.975,0,0,1,0,7.022l-4.436,4.435a4.966,4.966,0,0,1-7.143-.125l-.861-.923a.913.913,0,0,0-.683-.313.965.965,0,0,0-.989.972V270.8a4.971,4.971,0,0,1-4.966,4.966Z"/><path class="cls-2" d="M142.284,4a2.966,2.966,0,0,1,2.966,2.966V21.409a2.963,2.963,0,0,0,2.987,2.971,2.9,2.9,0,0,0,2.076-.875l1.9-1.9a2.966,2.966,0,0,1,4.194,0l4.509,4.509a2.965,2.965,0,0,1,0,4.194l-14.8,14.8a2.966,2.966,0,0,0-.869,2.1v59.283a2.96,2.96,0,0,0,4.448,2.568l5.948-3.434.418.723,53.814-31.069a2.966,2.966,0,0,0,1.382-1.8l5.061-18.889a2.962,2.962,0,0,1,3.632-2.1l6.159,1.65a2.965,2.965,0,0,1,2.1,3.632l-.341,1.271a2.957,2.957,0,0,0,4.347,3.336L243.7,55.749a2.964,2.964,0,0,1,4.051,1.085l9.308,16.122a2.965,2.965,0,0,1-1.085,4.051l-12.508,7.222a2.966,2.966,0,0,0,.715,5.433l2.594.7a2.965,2.965,0,0,1,2.1,3.632l-1.65,6.16a2.962,2.962,0,0,1-3.632,2.1L223.374,96.83a2.965,2.965,0,0,0-2.25.3l-58.681,33.88a2.966,2.966,0,0,0,0,5.136l-.138.239,54.369,31.39a2.965,2.965,0,0,0,2.25.3l18.889-5.061a2.963,2.963,0,0,1,3.632,2.1l1.65,6.159A2.966,2.966,0,0,1,241,174.9l-1.271.341a2.966,2.966,0,0,0-.715,5.433l11.481,6.629a2.966,2.966,0,0,1,1.085,4.051L242.27,207.47a2.964,2.964,0,0,1-4.051,1.085l-12.508-7.222a2.957,2.957,0,0,0-4.347,3.336l.7,2.594a2.966,2.966,0,0,1-2.1,3.632l-6.16,1.651a2.962,2.962,0,0,1-3.632-2.1l-5.416-20.212a2.966,2.966,0,0,0-1.382-1.8L149.7,157.448a2.96,2.96,0,0,0-4.448,2.568v9.233l-.516.007v62.491a2.966,2.966,0,0,0,.869,2.1l13.828,13.828a2.966,2.966,0,0,1,0,4.194L155,256.3a2.965,2.965,0,0,1-4.266-.074l-.861-.924a2.9,2.9,0,0,0-2.145-.949,2.962,2.962,0,0,0-2.989,2.971V270.8a2.966,2.966,0,0,1-2.966,2.966H123.152a2.966,2.966,0,0,1-2.966-2.966V256.355a2.963,2.963,0,0,0-2.987-2.971,2.9,2.9,0,0,0-2.076.875l-1.9,1.9a2.966,2.966,0,0,1-4.194,0l-4.509-4.509a2.966,2.966,0,0,1,0-4.194l14.8-14.8a2.965,2.965,0,0,0,.869-2.1V160.539a2.959,2.959,0,0,0-4.448-2.568l-4.455,2.572-.418-.723L58.079,190.3a2.966,2.966,0,0,0-1.382,1.8l-5.416,20.212a2.962,2.962,0,0,1-3.632,2.1l-6.16-1.65a2.966,2.966,0,0,1-2.1-3.632l.7-2.594a2.957,2.957,0,0,0-4.347-3.336l-12.508,7.222a2.964,2.964,0,0,1-4.051-1.085L9.873,193.206a2.966,2.966,0,0,1,1.085-4.051l11.481-6.628a2.966,2.966,0,0,0-.715-5.433l-1.271-.341a2.966,2.966,0,0,1-2.1-3.632l1.65-6.159a2.962,2.962,0,0,1,3.632-2.1l18.889,5.061a2.965,2.965,0,0,0,2.25-.3l58.562-33.811a2.966,2.966,0,0,0,0-5.136l-9.808-5.662.138-.239-53.342-30.8a2.965,2.965,0,0,0-2.25-.3L17.866,99.1a2.962,2.962,0,0,1-3.632-2.1l-1.65-6.16a2.965,2.965,0,0,1,2.1-3.632l2.594-.7a2.965,2.965,0,0,0,.715-5.433L5.481,73.866A2.965,2.965,0,0,1,4.4,69.815L13.7,53.693a2.964,2.964,0,0,1,4.051-1.085l11.481,6.628A2.957,2.957,0,0,0,33.583,55.9l-.341-1.271A2.965,2.965,0,0,1,35.34,51l6.159-1.65a2.962,2.962,0,0,1,3.632,2.1l5.061,18.889a2.966,2.966,0,0,0,1.382,1.8l64.164,37.045a2.959,2.959,0,0,0,4.448-2.568v-2.882h.516V46.016a2.966,2.966,0,0,0-.869-2.1L106.006,30.092a2.966,2.966,0,0,1,0-4.194l4.509-4.509a2.966,2.966,0,0,1,4.194,0l.931.931a2.9,2.9,0,0,0,2.076.875,2.964,2.964,0,0,0,2.987-2.971V6.966A2.966,2.966,0,0,1,123.668,4h18.617m0-4H123.668A6.973,6.973,0,0,0,116.7,6.966v10.88a6.969,6.969,0,0,0-9.015.715l-4.509,4.509a6.974,6.974,0,0,0,0,9.851L116.7,46.445v55.317a3.982,3.982,0,0,0-.516,1.966v1.09L53.945,68.883l-4.95-18.475a6.962,6.962,0,0,0-8.531-4.925L34.3,47.133a6.969,6.969,0,0,0-5.127,7.45l-9.422-5.44a6.964,6.964,0,0,0-9.515,2.549L.932,67.815a6.973,6.973,0,0,0,2.55,9.515L13.827,83.3l-.182.049A6.966,6.966,0,0,0,8.72,91.883l1.65,6.159a6.962,6.962,0,0,0,8.531,4.925l19.8-5.3,51.7,29.851a3.99,3.99,0,0,0,1.129.97l8.256,4.767-56.639,32.7L24.674,161a6.962,6.962,0,0,0-8.531,4.925l-1.65,6.159a6.977,6.977,0,0,0,3.89,8.164l-9.423,5.441a6.965,6.965,0,0,0-2.549,9.515l9.308,16.122a6.964,6.964,0,0,0,9.515,2.55l10.346-5.973-.049.182a6.966,6.966,0,0,0,4.925,8.531l6.16,1.65a6.962,6.962,0,0,0,8.531-4.925l5.3-19.8,50.3-29.039a4,4,0,0,0,2.536-.5l2.9-1.676v67.8l-14.493,14.493a6.973,6.973,0,0,0,0,9.851l4.509,4.509a6.966,6.966,0,0,0,9.851,0l.133-.133V270.8a6.973,6.973,0,0,0,6.966,6.966h18.617a6.973,6.973,0,0,0,6.966-6.966V259.786a6.993,6.993,0,0,0,4.165,1.383,6.92,6.92,0,0,0,4.925-2.04l4.435-4.435a6.965,6.965,0,0,0,0-9.851l-13.524-13.524v-60.1a3.982,3.982,0,0,0,.516-1.966v-7.441L201,191.687l5.3,19.8a6.962,6.962,0,0,0,8.531,4.925L221,214.76a6.965,6.965,0,0,0,4.925-8.531l-.049-.182,10.346,5.973a6.964,6.964,0,0,0,9.515-2.549l9.308-16.122a6.965,6.965,0,0,0-2.55-9.515l-9.424-5.441a6.977,6.977,0,0,0,3.89-8.164l-1.65-6.16a6.962,6.962,0,0,0-8.531-4.925l-18.475,4.95-52.585-30.36L222.753,100.8l19.8,5.3a6.962,6.962,0,0,0,8.531-4.925l1.65-6.16a6.965,6.965,0,0,0-4.926-8.531l-.182-.049,10.346-5.973a6.973,6.973,0,0,0,2.55-9.515l-9.308-16.122a6.964,6.964,0,0,0-9.515-2.55l-9.424,5.441a6.977,6.977,0,0,0-5.126-7.451l-6.159-1.65a6.962,6.962,0,0,0-8.531,4.925l-4.95,18.475-51.324,29.632a3.986,3.986,0,0,0-2.537.5l-4.4,2.538V47.631l14.493-14.493a6.965,6.965,0,0,0,0-9.851l-4.509-4.509a6.966,6.966,0,0,0-9.851,0l-.133.133V6.966A6.973,6.973,0,0,0,142.284,0Z"/><line class="cls-3" x1="113.42" y1="147.903" x2="78.594" y2="170.245"/><circle class="cls-3" cx="76.514" cy="171.446" r="2.402" transform="translate(-75.472 61.226) rotate(-30)"/><circle class="cls-3" cx="26.021" cy="171.496" r="2.402" transform="translate(-82.262 35.987) rotate(-30)"/><circle class="cls-3" cx="46.409" cy="207.608" r="2.402" transform="translate(-97.587 51.019) rotate(-30)"/><circle class="cls-3" cx="21.552" cy="195.689" r="2.402" transform="translate(-94.957 36.993) rotate(-30)"/><polyline class="cls-3" points="66.723 169.278 48.689 179.689 23.488 194.239"/><line class="cls-3" x1="28.294" y1="172.266" x2="50.761" y2="178.286"/><line class="cls-3" x1="46.879" y1="205.255" x2="54.382" y2="176.89"/><line class="cls-3" x1="109.798" y1="142.175" x2="66.723" y2="169.278"/><circle class="cls-3" cx="40.935" cy="57.222" r="2.402" transform="matrix(0.5, -0.866, 0.866, 0.5, -29.088, 64.061)"/><circle class="cls-3" cx="21.594" cy="92.142" r="2.402" transform="translate(-69 64.771) rotate(-60)"/><circle class="cls-3" cx="17.749" cy="65.448" r="2.402" transform="matrix(0.5, -0.866, 0.866, 0.5, -47.805, 48.095)"/><polyline class="cls-3" points="63.207 91.361 45.174 80.95 19.973 66.4"/><line class="cls-3" x1="41.405" y1="59.575" x2="47.425" y2="82.042"/><polyline class="cls-3" points="124.57 131.402 41.59 86.194 23.867 91.372"/><line class="cls-3" x1="127.719" y1="125.401" x2="63.207" y2="91.361"/><path class="cls-3" d="M154.77,118.449"/><circle class="cls-3" cx="242.076" cy="95.8" r="2.402" transform="translate(-15.468 133.873) rotate(-30)"/><circle class="cls-3" cx="221.116" cy="59.496" r="2.402" transform="translate(-0.124 118.529) rotate(-30)"/><circle class="cls-3" cx="246.545" cy="71.607" r="2.402" transform="translate(-2.773 132.866) rotate(-30)"/><polyline class="cls-3" points="201.375 98.018 219.408 87.607 244.609 73.057"/><line class="cls-3" x1="239.803" y1="95.03" x2="217.336" y2="89.01"/><polyline class="cls-3" points="220.646 61.849 213.715 90.406 212.002 91.279 206.599 89.831"/><circle class="cls-3" cx="204.917" cy="88.071" r="2.083" transform="matrix(0.866, -0.5, 0.5, 0.866, -16.582, 114.258)"/><circle class="cls-4" cx="235.85" cy="68.333" r="2.392" transform="translate(-2.569 127.08) rotate(-30)"/><polyline class="cls-3" points="223.447 85.275 227.43 73.197 233.78 69.531"/><line class="cls-3" x1="158.392" y1="124.177" x2="201.375" y2="98.018"/><line class="cls-3" x1="136.666" y1="151.729" x2="136.855" y2="203.226"/><circle class="cls-3" cx="136.855" cy="205.628" r="2.402"/><circle class="cls-3" cx="111.652" cy="249.382" r="2.402"/><circle class="cls-3" cx="153.572" cy="249.382" r="2.402"/><circle class="cls-3" cx="130.369" cy="265.348" r="2.402"/><polyline class="cls-3" points="135.496 207.608 130.081 213.024 130.081 233.847 130.081 262.946"/><line class="cls-3" x1="113.454" y1="247.798" x2="129.902" y2="231.351"/><line class="cls-3" x1="151.769" y1="247.798" x2="129.902" y2="226.943"/><circle class="cls-3" cx="215.316" cy="204.046" r="2.402" transform="translate(-69.051 288.492) rotate(-60)"/><circle class="cls-3" cx="235.84" cy="169.907" r="2.402" transform="translate(-29.224 289.196) rotate(-60)"/><circle class="cls-3" cx="236.755" cy="195.82" r="2.402" transform="translate(-51.208 302.946) rotate(-60)"/><polyline class="cls-3" points="191.297 169.907 209.33 180.318 234.531 194.868"/><line class="cls-3" x1="214.846" y1="201.693" x2="207.078" y2="179.226"/><polyline class="cls-3" points="138.789 133.401 212.914 175.074 233.567 170.676"/><line class="cls-3" x1="135.64" y1="139.402" x2="191.297" y2="169.907"/><line class="cls-3" x1="128.326" y1="121.763" x2="128.326" y2="74.148"/><circle class="cls-3" cx="128.326" cy="71.746" r="2.402"/><circle class="cls-3" cx="153.021" cy="29.202" r="2.402"/><circle class="cls-3" cx="112.755" cy="28.426" r="2.402"/><circle class="cls-3" cx="134.812" cy="12.025" r="2.402"/><polyline class="cls-3" points="129.685 69.765 135.1 64.35 135.1 43.527 135.1 14.427"/><line class="cls-3" x1="151.218" y1="30.786" x2="135.279" y2="46.023"/><line class="cls-3" x1="114.558" y1="30.009" x2="134.678" y2="49.857"/><circle class="cls-4" cx="126.912" cy="21.954" r="2.392"/><polyline class="cls-3" points="135.1 38.863 126.914 31.677 126.914 24.345"/><rect class="cls-5" x="112.43" y="113.831" width="39.142" height="39.142"/><path class="cls-6" d="M170.1,145.5V121.306a16.286,16.286,0,0,0-8.143-14.1l-20.95-12.1a16.286,16.286,0,0,0-16.286,0l-20.95,12.1a16.286,16.286,0,0,0-8.143,14.1V145.5a16.286,16.286,0,0,0,8.143,14.1l20.95,12.1a16.286,16.286,0,0,0,16.286,0l20.95-12.1A16.286,16.286,0,0,0,170.1,145.5Z"/></g></g></svg>